<svg width="24" height="24" viewBox="0 0 24 24" fill="none" xmlns="http://www.w3.org/2000/svg">
<path fill-rule="evenodd" clip-rule="evenodd" d="M9.02643 23.386C9.02643 23.0937 9.01611 22.3202 9.01022 21.2929C5.67236 22.0362 4.96811 19.6433 4.96811 19.6433C4.42223 18.2217 3.63547 17.8433 3.63547 17.8433C2.54593 17.0797 3.71798 17.0955 3.71798 17.0955C4.92243 17.1824 5.55597 18.3637 5.55597 18.3637C6.62635 20.2438 8.36416 19.7014 9.04853 19.3865C9.15755 18.5911 9.46769 18.0488 9.81024 17.7413C7.14571 17.4309 4.34415 16.3749 4.34415 11.6601C4.34415 10.3171 4.81193 9.21888 5.57954 8.35855C5.45652 8.04736 5.04398 6.79652 5.69741 5.1023C5.69741 5.1023 6.70518 4.77146 8.99696 6.36371C9.9539 6.09103 10.9808 5.95356 12.0018 5.94903C13.0207 5.95356 14.0468 6.09103 15.006 6.36371C17.2963 4.77146 18.3026 5.1023 18.3026 5.1023C18.9575 6.79576 18.5457 8.0466 18.4219 8.35855C19.191 9.21888 19.6551 10.3171 19.6551 11.6601C19.6551 16.387 16.8491 17.4271 14.1758 17.7315C14.6074 18.1115 14.9905 18.8623 14.9905 20.0104C14.9905 21.6555 14.975 22.9826 14.975 23.386C14.975 23.7153 15.1916 24.0975 15.8009 23.9774C20.5649 22.3474 24 17.7383 24 12.3044C24 5.50867 18.6267 0 11.9996 0C5.37328 0 0 5.50867 0 12.3044C0.000736671 17.7398 3.43878 22.3519 8.20725 23.9789C8.8069 24.0915 9.02643 23.7115 9.02643 23.386Z" fill="white"/>
</svg>
