<svg width="34" height="34" viewBox="0 0 34 34" fill="none" xmlns="http://www.w3.org/2000/svg">
<rect width="34" height="34" rx="10" fill="url(#paint0_linear)"/>
<path d="M5.50102 9.46044C8.79492 12.25 14.5747 17.1577 16.2735 18.688C16.5015 18.8945 16.7461 18.9995 17 18.9995C17.2534 18.9995 17.4976 18.8955 17.7251 18.6899C19.4253 17.1582 25.2051 12.25 28.4991 9.46044C28.7041 9.28709 28.7354 8.98241 28.5694 8.77048C28.1856 8.28078 27.6133 8 27 8H7.00003C6.38677 8 5.81447 8.28078 5.43071 8.77053C5.26467 8.98241 5.29594 9.28709 5.50102 9.46044Z" fill="black"/>
<path d="M28.71 10.9722C28.5327 10.8897 28.3242 10.9184 28.1768 11.0444C24.5239 14.1411 19.8618 18.1104 18.395 19.4321C17.5717 20.1753 16.4292 20.1753 15.604 19.4311C14.0405 18.0224 8.80512 13.5717 5.82322 11.0444C5.67477 10.9184 5.4658 10.8906 5.29002 10.9721C5.1133 11.0542 5 11.2309 5 11.4258V24C5 25.103 5.89695 26 7.00002 26H27C28.103 26 29 25.103 29 24V11.4258C29 11.2309 28.8867 11.0537 28.71 10.9722Z" fill="black"/>
<defs>
<linearGradient id="paint0_linear" x1="17" y1="0" x2="17" y2="34" gradientUnits="userSpaceOnUse">
<stop stop-color="#76FBFB"/>
<stop offset="0.0001" stop-color="#D6F9C6"/>
<stop offset="0.0002" stop-color="#2CE8AF" stop-opacity="0.959064"/>
<stop offset="0.604167" stop-color="white" stop-opacity="0.865219"/>
<stop offset="0.776042" stop-color="#8BE7FB" stop-opacity="0.8125"/>
<stop offset="0.9996" stop-color="#396B88" stop-opacity="0.395652"/>
<stop offset="0.9997" stop-color="#280AE1" stop-opacity="0"/>
<stop offset="0.9998" stop-color="#B4AAF4" stop-opacity="0.905048"/>
</linearGradient>
</defs>
</svg>
