<svg width="24" height="24" viewBox="0 0 24 24" fill="none" xmlns="http://www.w3.org/2000/svg">
<path d="M12 24C18.6274 24 24 18.6274 24 12C24 5.37258 18.6274 0 12 0C5.37258 0 0 5.37258 0 12C0 18.6274 5.37258 24 12 24Z" fill="black"/>
<path d="M16.8984 7.24219C16.4297 6.77813 15.8672 6.54375 15.2063 6.54375C14.55 6.54375 13.9875 6.77813 13.5234 7.24688C13.0594 7.71563 12.825 8.27344 12.825 8.925C12.825 9.58125 13.0594 10.1438 13.5234 10.6078C13.9875 11.0719 14.55 11.3062 15.2063 11.3062C15.8625 11.3062 16.4297 11.0719 16.8984 10.6078C17.3672 10.1438 17.6016 9.58125 17.6016 8.925C17.6016 8.26875 17.3672 7.71094 16.8984 7.24219ZM18.3469 5.80313C17.4797 4.93594 16.4297 4.5 15.1922 4.5C13.9734 4.5 12.9328 4.93125 12.0703 5.78906C11.2078 6.64687 10.7672 7.6875 10.7484 8.90625L7.97344 12.8766C7.89844 12.8672 7.78594 12.8625 7.62656 12.8625C7.00781 12.8625 6.44531 13.0172 5.93906 13.3172L0.046875 10.9594C0.01875 11.3016 0 11.6484 0 12C0 13.1484 0.159375 14.2547 0.459375 15.3094L4.39688 16.8844C4.56094 17.6391 4.94531 18.2672 5.55 18.7594C6.15469 19.2516 6.84844 19.5 7.62656 19.5C8.48438 19.5 9.225 19.2141 9.85781 18.6375C10.4906 18.0609 10.8469 17.3484 10.9313 16.5047L15.1875 13.3969C16.4203 13.3969 17.4703 12.9609 18.3375 12.0938C19.2047 11.2266 19.6406 10.1813 19.6406 8.95312C19.6453 7.72031 19.2141 6.67031 18.3469 5.80313ZM9.36094 17.9156C8.88281 18.3891 8.30625 18.6234 7.63594 18.6234C7.17656 18.6234 6.75 18.5016 6.36563 18.2672C5.97656 18.0281 5.68125 17.7141 5.47969 17.3156C5.90625 17.4797 6.30938 17.6437 6.68906 17.8078C7.18125 18.0047 7.67344 18 8.17031 17.7891C8.6625 17.5781 9.01406 17.2219 9.22031 16.7203C9.41719 16.2281 9.4125 15.7359 9.20156 15.2391C8.99063 14.7469 8.63438 14.4 8.13281 14.2031L7.12031 13.7953C7.30313 13.7531 7.47188 13.7344 7.63594 13.7344C8.31094 13.7344 8.8875 13.9688 9.36094 14.4422C9.83906 14.9156 10.0781 15.4922 10.0781 16.1766C10.0781 16.8609 9.83438 17.4422 9.36094 17.9156ZM17.3016 11.0578C16.7156 11.6391 16.0125 11.925 15.1922 11.925C14.3719 11.925 13.6688 11.6344 13.0875 11.0578C12.5063 10.4812 12.2156 9.77813 12.2156 8.95312C12.2156 8.13281 12.5063 7.42969 13.0875 6.84375C13.6688 6.25781 14.3672 5.96719 15.1922 5.96719C16.0219 5.96719 16.7297 6.25781 17.3063 6.83438C17.8828 7.41094 18.1734 8.11875 18.1734 8.94844C18.1781 9.77344 17.8875 10.4766 17.3016 11.0578ZM15.2063 6.54844C14.55 6.54844 13.9875 6.78281 13.5234 7.25156C13.0594 7.72031 12.825 8.27813 12.825 8.92969C12.825 9.58594 13.0594 10.1484 13.5234 10.6125C13.9875 11.0766 14.55 11.3109 15.2063 11.3109C15.8625 11.3109 16.4297 11.0766 16.8984 10.6125C17.3672 10.1484 17.6016 9.58594 17.6016 8.92969C17.6016 8.27344 17.3672 7.71094 16.8984 7.24688C16.4297 6.78281 15.8625 6.54844 15.2063 6.54844ZM16.8984 7.24219C16.4297 6.77813 15.8672 6.54375 15.2063 6.54375C14.55 6.54375 13.9875 6.77813 13.5234 7.24688C13.0594 7.71563 12.825 8.27344 12.825 8.925C12.825 9.58125 13.0594 10.1438 13.5234 10.6078C13.9875 11.0719 14.55 11.3062 15.2063 11.3062C15.8625 11.3062 16.4297 11.0719 16.8984 10.6078C17.3672 10.1438 17.6016 9.58125 17.6016 8.925C17.6016 8.26875 17.3672 7.71094 16.8984 7.24219Z" fill="white"/>
</svg>
