<svg width="24" height="24" viewBox="0 0 24 24" fill="none" xmlns="http://www.w3.org/2000/svg">
<path d="M23.995 4.55775C23.1122 4.95 22.1642 5.21475 21.1675 5.3325C22.1837 4.7235 22.9645 3.759 23.3327 2.61C22.381 3.17325 21.328 3.58425 20.2067 3.804C19.3082 2.84775 18.0287 2.25 16.612 2.25C13.8932 2.25 11.6905 4.4535 11.6905 7.17225C11.6905 7.55775 11.7332 7.93425 11.8172 8.29425C7.72598 8.08875 4.09898 6.129 1.67048 3.15075C1.24748 3.87825 1.00448 4.7235 1.00448 5.62575C1.00448 7.33425 1.87373 8.84025 3.19373 9.72375C2.38748 9.6975 1.62848 9.477 0.964726 9.108C0.963976 9.12825 0.963976 9.15 0.963976 9.1695C0.963976 11.5552 2.66048 13.545 4.91273 13.9973C4.50023 14.109 4.06523 14.1697 3.61598 14.1697C3.29798 14.1697 2.99048 14.139 2.69048 14.082C3.31598 16.0365 5.13473 17.46 7.28798 17.5005C5.60423 18.8205 3.48173 19.6088 1.17548 19.6088C0.777977 19.6088 0.385727 19.5855 0.000976562 19.5397C2.17898 20.9347 4.76648 21.75 7.54673 21.75C16.6007 21.75 21.553 14.2492 21.553 7.74375C21.553 7.53075 21.547 7.31775 21.538 7.10625C22.5002 6.4125 23.3342 5.54625 23.995 4.55775Z" fill="white"/>
</svg>
